REM Ripping Tool: trurip

FILE "Inoue Mami - Kono Hoshi ni Tatta Hitori no Kimi (1992)(Hudson)(JP).img" BINARY
  TRACK 01 AUDIO
    INDEX 01 00:00:00
  TRACK 02 MODE1/2352
    INDEX 00 00:46:34
    INDEX 01 00:49:33
  TRACK 03 AUDIO
    INDEX 00 23:09:63
    INDEX 01 23:11:63
  TRACK 04 AUDIO
    INDEX 01 25:29:09
  TRACK 05 AUDIO
    INDEX 01 27:54:57
  TRACK 06 AUDIO
    INDEX 01 31:10:35
  TRACK 07 AUDIO
    INDEX 01 31:52:69
  TRACK 08 AUDIO
    INDEX 01 32:38:47
  TRACK 09 AUDIO
    INDEX 01 33:18:36

REM DISC HASHES
REM CRC32 : e651e55b
REM MD5   : b6a9cb7aa2b12a65ecfc0a2e69cc0474
REM SHA1  : 593bdfbb734b2078081780ebe718c3d99f99922b

REM Gap Append Method: Prev [crc32]
REM Trk 01: 9ffb0e60
REM Trk 02: ddf822d8
REM Trk 03: 6f057388
REM Trk 04: 3c3ebe41
REM Trk 05: 67cb3e6d
REM Trk 06: 74eaa314
REM Trk 07: 2fb5b9fa
REM Trk 08: d318c138
REM Trk 09: e4e5f699

REM Gap Append Method: Prev [md5]
REM Trk 01: 2d3e0d45a1c2fa9b8e54fb7f3f3ed460
REM Trk 02: 6727f7c4a34898f4e86fc4ee8dd9c7cd
REM Trk 03: 7bacfe7e13d5cb56441678baa5a69be2
REM Trk 04: 879a09d7241113dd70782f6b7e398e5c
REM Trk 05: fc7740ba1fd5697d100cb1a618614c59
REM Trk 06: 6b3b7613c33a35a073eab7ce752acb81
REM Trk 07: 9b71ef21100777c3fec99f66e23d1f9f
REM Trk 08: f364f2b4a99f41839c02ee98bc8fb51d
REM Trk 09: eff539d4d1e7c5c9fd186a5278652ab4

REM Gap Append Method: Prev [sha1]
REM Trk 01: dc6e0ff77d68f1891ddcd35a7363db5e9f1254b9
REM Trk 02: 8c222f25cc816d53a4532723856da887c367a2a4
REM Trk 03: 6202e06b834763eb5db4dd30c5c0211a31201fbc
REM Trk 04: d936548479403de391a5adb78bb610e6a67c4681
REM Trk 05: f873c5d24399a6f7da70796569a7f1d0c2e81366
REM Trk 06: f04ee52bb97f3a36cc69b84976ce10d8a4da98da
REM Trk 07: 479b07e811366bc13fbb3d8b8d30d177763e6675
REM Trk 08: 9a8d2c819e33eb35cdfc847607b0abb126249e67
REM Trk 09: 6c3117bfff2e1056007677ae888027cc18e4f9a5

REM Gap Append Method: None [crc32]
REM Trk 01: 39fef712
REM Trk 02: 3c612f93
REM Trk 03: 6f057388
REM Trk 04: 3c3ebe41
REM Trk 05: 67cb3e6d
REM Trk 06: 74eaa314
REM Trk 07: 2fb5b9fa
REM Trk 08: d318c138
REM Trk 09: e4e5f699
REM Gap 02: a397460f
REM Gap 03: 7abe247f

REM Gap Append Method: None [md5]
REM Trk 01: 3072440eb8baec79b6eaf18055122a7d
REM Trk 02: 8b11353d27a2706214d9395ff35a00e6
REM Trk 03: 7bacfe7e13d5cb56441678baa5a69be2
REM Trk 04: 879a09d7241113dd70782f6b7e398e5c
REM Trk 05: fc7740ba1fd5697d100cb1a618614c59
REM Trk 06: 6b3b7613c33a35a073eab7ce752acb81
REM Trk 07: 9b71ef21100777c3fec99f66e23d1f9f
REM Trk 08: f364f2b4a99f41839c02ee98bc8fb51d
REM Trk 09: eff539d4d1e7c5c9fd186a5278652ab4
REM Gap 02: 68a324b9e929ee4bf83701363e9c7bdf
REM Gap 03: 9df204fbc98bb8965081cb30a89715fc

REM Gap Append Method: None [sha1]
REM Trk 01: 51e159799e254e63567de1e209516a3a78356085
REM Trk 02: cceaddf8dfea195c08d6ee0e1d9a8a10f2a72b68
REM Trk 03: 6202e06b834763eb5db4dd30c5c0211a31201fbc
REM Trk 04: d936548479403de391a5adb78bb610e6a67c4681
REM Trk 05: f873c5d24399a6f7da70796569a7f1d0c2e81366
REM Trk 06: f04ee52bb97f3a36cc69b84976ce10d8a4da98da
REM Trk 07: 479b07e811366bc13fbb3d8b8d30d177763e6675
REM Trk 08: 9a8d2c819e33eb35cdfc847607b0abb126249e67
REM Trk 09: 6c3117bfff2e1056007677ae888027cc18e4f9a5
REM Gap 02: aff95ec0725e0ef35b0d5a6851557fdf5816af17
REM Gap 03: cbe29e0bd725ef1194f8c47619dd42078e841de2

REM Gap Append Method: Next [crc32]
REM Trk 01: 39fef712
REM Trk 02: 8b31da0a
REM Trk 03: ed3448e4
REM Trk 04: 3c3ebe41
REM Trk 05: 67cb3e6d
REM Trk 06: 74eaa314
REM Trk 07: 2fb5b9fa
REM Trk 08: d318c138
REM Trk 09: e4e5f699

REM Gap Append Method: Next [md5]
REM Trk 01: 3072440eb8baec79b6eaf18055122a7d
REM Trk 02: 1398409bfbd5537addbf144bb273aa9d
REM Trk 03: 416e7e4c1869226cd95c7308dc777cdb
REM Trk 04: 879a09d7241113dd70782f6b7e398e5c
REM Trk 05: fc7740ba1fd5697d100cb1a618614c59
REM Trk 06: 6b3b7613c33a35a073eab7ce752acb81
REM Trk 07: 9b71ef21100777c3fec99f66e23d1f9f
REM Trk 08: f364f2b4a99f41839c02ee98bc8fb51d
REM Trk 09: eff539d4d1e7c5c9fd186a5278652ab4

REM Gap Append Method: Next [sha1]
REM Trk 01: 51e159799e254e63567de1e209516a3a78356085
REM Trk 02: 12f89f47642cbac296ff1c7a1b96a276eb87b5b8
REM Trk 03: b6374a2a7097f521a983e5c2fb0c1d701d3b4e0a
REM Trk 04: d936548479403de391a5adb78bb610e6a67c4681
REM Trk 05: f873c5d24399a6f7da70796569a7f1d0c2e81366
REM Trk 06: f04ee52bb97f3a36cc69b84976ce10d8a4da98da
REM Trk 07: 479b07e811366bc13fbb3d8b8d30d177763e6675
REM Trk 08: 9a8d2c819e33eb35cdfc847607b0abb126249e67
REM Trk 09: 6c3117bfff2e1056007677ae888027cc18e4f9a5

